<svg height="512" viewBox="0 0 512 512" width="512" xmlns="http://www.w3.org/2000/svg" xmlns:xlink="http://www.w3.org/1999/xlink"><linearGradient id="a" gradientUnits="userSpaceOnUse" x1="15.621" x2="536.708" y1="496.379" y2="-24.708" data-name="New Gradient Swatch 1"><stop offset="0" stop-color="#003f8a"/><stop offset=".518" stop-color="#00d7df"/><stop offset="1" stop-color="#006df0"/></linearGradient><linearGradient id="b" x1="63.621" x2="584.708" xlink:href="#a" y1="544.379" y2="23.292"/><linearGradient id="c" x1="-26.379" x2="494.708" xlink:href="#a" y1="454.379" y2="-66.708"/><linearGradient id="d" x1="153.621" x2="674.708" xlink:href="#a" y1="634.379" y2="113.292"/><linearGradient id="e" x1="111.621" x2="632.708" xlink:href="#a" y1="592.379" y2="71.292"/><linearGradient id="f" x1="-64.379" x2="456.708" xlink:href="#a" y1="416.379" y2="-104.708"/><linearGradient id="g" x1="-32.379" x2="488.708" xlink:href="#a" y1="448.379" y2="-72.708"/><linearGradient id="h" x1="-.379" x2="520.708" xlink:href="#a" y1="480.379" y2="-40.708"/><linearGradient id="i" x1="31.621" x2="552.708" xlink:href="#a" y1="512.379" y2="-8.708"/><linearGradient id="k" x1="-96.379" x2="424.708" xlink:href="#a" y1="384.379" y2="-136.708"/><linearGradient id="q" x1="95.621" x2="616.708" xlink:href="#a" y1="576.379" y2="55.292"/><linearGradient id="r" x1="-128.379" x2="392.708" xlink:href="#a" y1="352.379" y2="-168.708"/><g><path d="m476 112h-440a28.032 28.032 0 0 0 -28 28v232a28.032 28.032 0 0 0 28 28h440a28.032 28.032 0 0 0 28-28v-232a28.032 28.032 0 0 0 -28-28zm12 260a12.013 12.013 0 0 1 -12 12h-440a12.013 12.013 0 0 1 -12-12v-232a12.013 12.013 0 0 1 12-12h440a12.013 12.013 0 0 1 12 12z" fill="url(#a)"/><path d="m376 328h-240a8 8 0 0 0 -8 8v32a8 8 0 0 0 8 8h240a8 8 0 0 0 8-8v-32a8 8 0 0 0 -8-8zm-8 32h-224v-16h224z" fill="url(#b)"/><path d="m104 328h-56a8 8 0 0 0 -8 8v32a8 8 0 0 0 8 8h56a8 8 0 0 0 8-8v-32a8 8 0 0 0 -8-8zm-8 32h-40v-16h40z" fill="url(#c)"/><path d="m464 328h-56a8 8 0 0 0 -8 8v32a8 8 0 0 0 8 8h56a8 8 0 0 0 8-8v-32a8 8 0 0 0 -8-8zm-8 32h-40v-16h40z" fill="url(#d)"/><path d="m464 264h-96a8 8 0 0 0 -8 8v32a8 8 0 0 0 8 8h96a8 8 0 0 0 8-8v-32a8 8 0 0 0 -8-8zm-8 32h-80v-16h80z" fill="url(#e)"/><path d="m48 312h32a8 8 0 0 0 8-8v-32a8 8 0 0 0 -8-8h-32a8 8 0 0 0 -8 8v32a8 8 0 0 0 8 8zm8-32h16v16h-16z" fill="url(#f)"/><path d="m152 304v-32a8 8 0 0 0 -8-8h-32a8 8 0 0 0 -8 8v32a8 8 0 0 0 8 8h32a8 8 0 0 0 8-8zm-16-8h-16v-16h16z" fill="url(#g)"/><path d="m176 312h32a8 8 0 0 0 8-8v-32a8 8 0 0 0 -8-8h-32a8 8 0 0 0 -8 8v32a8 8 0 0 0 8 8zm8-32h16v16h-16z" fill="url(#h)"/><path d="m240 312h32a8 8 0 0 0 8-8v-32a8 8 0 0 0 -8-8h-32a8 8 0 0 0 -8 8v32a8 8 0 0 0 8 8zm8-32h16v16h-16z" fill="url(#i)"/><path d="m304 312h32a8 8 0 0 0 8-8v-32a8 8 0 0 0 -8-8h-32a8 8 0 0 0 -8 8v32a8 8 0 0 0 8 8zm8-32h16v16h-16z" fill="url(#b)"/><path d="m48 248h32a8 8 0 0 0 8-8v-32a8 8 0 0 0 -8-8h-32a8 8 0 0 0 -8 8v32a8 8 0 0 0 8 8zm8-32h16v16h-16z" fill="url(#k)"/><path d="m112 248h32a8 8 0 0 0 8-8v-32a8 8 0 0 0 -8-8h-32a8 8 0 0 0 -8 8v32a8 8 0 0 0 8 8zm8-32h16v16h-16z" fill="url(#f)"/><path d="m176 248h32a8 8 0 0 0 8-8v-32a8 8 0 0 0 -8-8h-32a8 8 0 0 0 -8 8v32a8 8 0 0 0 8 8zm8-32h16v16h-16z" fill="url(#g)"/><path d="m240 248h32a8 8 0 0 0 8-8v-32a8 8 0 0 0 -8-8h-32a8 8 0 0 0 -8 8v32a8 8 0 0 0 8 8zm8-32h16v16h-16z" fill="url(#h)"/><path d="m304 248h32a8 8 0 0 0 8-8v-32a8 8 0 0 0 -8-8h-32a8 8 0 0 0 -8 8v32a8 8 0 0 0 8 8zm8-32h16v16h-16z" fill="url(#i)"/><path d="m368 248h32a8 8 0 0 0 8-8v-32a8 8 0 0 0 -8-8h-32a8 8 0 0 0 -8 8v32a8 8 0 0 0 8 8zm8-32h16v16h-16z" fill="url(#b)"/><path d="m464 200h-32a8 8 0 0 0 -8 8v32a8 8 0 0 0 8 8h32a8 8 0 0 0 8-8v-32a8 8 0 0 0 -8-8zm-8 32h-16v-16h16z" fill="url(#q)"/><path d="m48 184h32a8 8 0 0 0 8-8v-32a8 8 0 0 0 -8-8h-32a8 8 0 0 0 -8 8v32a8 8 0 0 0 8 8zm8-32h16v16h-16z" fill="url(#r)"/><path d="m112 184h32a8 8 0 0 0 8-8v-32a8 8 0 0 0 -8-8h-32a8 8 0 0 0 -8 8v32a8 8 0 0 0 8 8zm8-32h16v16h-16z" fill="url(#k)"/><path d="m176 184h32a8 8 0 0 0 8-8v-32a8 8 0 0 0 -8-8h-32a8 8 0 0 0 -8 8v32a8 8 0 0 0 8 8zm8-32h16v16h-16z" fill="url(#f)"/><path d="m240 184h32a8 8 0 0 0 8-8v-32a8 8 0 0 0 -8-8h-32a8 8 0 0 0 -8 8v32a8 8 0 0 0 8 8zm8-32h16v16h-16z" fill="url(#g)"/><path d="m304 184h32a8 8 0 0 0 8-8v-32a8 8 0 0 0 -8-8h-32a8 8 0 0 0 -8 8v32a8 8 0 0 0 8 8zm8-32h16v16h-16z" fill="url(#h)"/><path d="m368 184h32a8 8 0 0 0 8-8v-32a8 8 0 0 0 -8-8h-32a8 8 0 0 0 -8 8v32a8 8 0 0 0 8 8zm8-32h16v16h-16z" fill="url(#i)"/><path d="m464 136h-32a8 8 0 0 0 -8 8v32a8 8 0 0 0 8 8h32a8 8 0 0 0 8-8v-32a8 8 0 0 0 -8-8zm-8 32h-16v-16h16z" fill="url(#b)"/></g></svg>